<mxfile host="app.diagrams.net" modified="2022-07-29T09:42:04.965Z" agent="5.0 (Windows NT 10.0; Win64; x64) AppleWebKit/537.36 (KHTML, like Gecko) Chrome/103.0.0.0 Safari/537.36" etag="NK0CEA1y8aAkUceG6kso" version="20.2.0" type="github">
  <diagram id="V8ooQuvj8oJpIVEdFzg9" name="第 1 页">
    <mxGraphModel dx="1063" dy="527" grid="1" gridSize="10" guides="1" tooltips="1" connect="1" arrows="1" fold="1" page="1" pageScale="1" pageWidth="827" pageHeight="1169" math="0" shadow="0">
      <root>
        <mxCell id="0" />
        <mxCell id="1" parent="0" />
        <mxCell id="qnB3MeHHuW4oLEE5ELyq-4" style="edgeStyle=orthogonalEdgeStyle;rounded=0;orthogonalLoop=1;jettySize=auto;html=1;exitX=1;exitY=0.5;exitDx=0;exitDy=0;" edge="1" parent="1" source="qnB3MeHHuW4oLEE5ELyq-1" target="qnB3MeHHuW4oLEE5ELyq-2">
          <mxGeometry relative="1" as="geometry" />
        </mxCell>
        <mxCell id="qnB3MeHHuW4oLEE5ELyq-66" style="edgeStyle=orthogonalEdgeStyle;rounded=0;orthogonalLoop=1;jettySize=auto;html=1;exitX=1;exitY=0.5;exitDx=0;exitDy=0;entryX=0;entryY=0.5;entryDx=0;entryDy=0;" edge="1" parent="1" source="qnB3MeHHuW4oLEE5ELyq-1" target="qnB3MeHHuW4oLEE5ELyq-43">
          <mxGeometry relative="1" as="geometry">
            <mxPoint x="160" y="530" as="targetPoint" />
            <Array as="points">
              <mxPoint x="140" y="440" />
              <mxPoint x="140" y="530" />
            </Array>
          </mxGeometry>
        </mxCell>
        <mxCell id="qnB3MeHHuW4oLEE5ELyq-67" style="edgeStyle=orthogonalEdgeStyle;rounded=0;orthogonalLoop=1;jettySize=auto;html=1;entryX=0;entryY=0.583;entryDx=0;entryDy=0;entryPerimeter=0;" edge="1" parent="1">
          <mxGeometry relative="1" as="geometry">
            <mxPoint x="130" y="440.01" as="sourcePoint" />
            <mxPoint x="220" y="619.9899999999999" as="targetPoint" />
            <Array as="points">
              <mxPoint x="140" y="440" />
              <mxPoint x="140" y="620" />
            </Array>
          </mxGeometry>
        </mxCell>
        <mxCell id="qnB3MeHHuW4oLEE5ELyq-1" value="视频读取" style="rounded=0;whiteSpace=wrap;html=1;" vertex="1" parent="1">
          <mxGeometry x="10" y="410" width="120" height="60" as="geometry" />
        </mxCell>
        <mxCell id="qnB3MeHHuW4oLEE5ELyq-5" style="edgeStyle=orthogonalEdgeStyle;rounded=0;orthogonalLoop=1;jettySize=auto;html=1;entryX=0;entryY=0.5;entryDx=0;entryDy=0;" edge="1" parent="1" source="qnB3MeHHuW4oLEE5ELyq-2" target="qnB3MeHHuW4oLEE5ELyq-3">
          <mxGeometry relative="1" as="geometry" />
        </mxCell>
        <mxCell id="qnB3MeHHuW4oLEE5ELyq-2" value="抽帧" style="rounded=0;whiteSpace=wrap;html=1;" vertex="1" parent="1">
          <mxGeometry x="150" y="410" width="120" height="60" as="geometry" />
        </mxCell>
        <mxCell id="qnB3MeHHuW4oLEE5ELyq-7" style="edgeStyle=orthogonalEdgeStyle;rounded=0;orthogonalLoop=1;jettySize=auto;html=1;exitX=1;exitY=0.5;exitDx=0;exitDy=0;entryX=0;entryY=0.5;entryDx=0;entryDy=0;" edge="1" parent="1" source="qnB3MeHHuW4oLEE5ELyq-3" target="qnB3MeHHuW4oLEE5ELyq-6">
          <mxGeometry relative="1" as="geometry" />
        </mxCell>
        <mxCell id="qnB3MeHHuW4oLEE5ELyq-3" value="图像格式转化" style="rounded=0;whiteSpace=wrap;html=1;" vertex="1" parent="1">
          <mxGeometry x="290" y="410" width="120" height="60" as="geometry" />
        </mxCell>
        <mxCell id="qnB3MeHHuW4oLEE5ELyq-9" style="edgeStyle=orthogonalEdgeStyle;rounded=0;orthogonalLoop=1;jettySize=auto;html=1;exitX=1;exitY=0.5;exitDx=0;exitDy=0;entryX=0;entryY=0.5;entryDx=0;entryDy=0;" edge="1" parent="1" source="qnB3MeHHuW4oLEE5ELyq-6" target="qnB3MeHHuW4oLEE5ELyq-8">
          <mxGeometry relative="1" as="geometry" />
        </mxCell>
        <mxCell id="qnB3MeHHuW4oLEE5ELyq-6" value="图像预处理" style="rounded=0;whiteSpace=wrap;html=1;" vertex="1" parent="1">
          <mxGeometry x="440" y="410" width="120" height="60" as="geometry" />
        </mxCell>
        <mxCell id="qnB3MeHHuW4oLEE5ELyq-11" style="edgeStyle=orthogonalEdgeStyle;rounded=0;orthogonalLoop=1;jettySize=auto;html=1;exitX=1;exitY=0.5;exitDx=0;exitDy=0;entryX=0;entryY=0.5;entryDx=0;entryDy=0;" edge="1" parent="1" source="qnB3MeHHuW4oLEE5ELyq-8" target="qnB3MeHHuW4oLEE5ELyq-10">
          <mxGeometry relative="1" as="geometry" />
        </mxCell>
        <mxCell id="qnB3MeHHuW4oLEE5ELyq-8" value="算法推理" style="rounded=0;whiteSpace=wrap;html=1;" vertex="1" parent="1">
          <mxGeometry x="600" y="410" width="120" height="60" as="geometry" />
        </mxCell>
        <mxCell id="qnB3MeHHuW4oLEE5ELyq-31" style="edgeStyle=orthogonalEdgeStyle;rounded=0;orthogonalLoop=1;jettySize=auto;html=1;exitX=1;exitY=0.5;exitDx=0;exitDy=0;entryX=0;entryY=0.5;entryDx=0;entryDy=0;" edge="1" parent="1" source="qnB3MeHHuW4oLEE5ELyq-10" target="qnB3MeHHuW4oLEE5ELyq-30">
          <mxGeometry relative="1" as="geometry" />
        </mxCell>
        <mxCell id="qnB3MeHHuW4oLEE5ELyq-10" value="后处理" style="rounded=0;whiteSpace=wrap;html=1;" vertex="1" parent="1">
          <mxGeometry x="749" y="410" width="120" height="60" as="geometry" />
        </mxCell>
        <mxCell id="qnB3MeHHuW4oLEE5ELyq-30" value="时间戳命名存储" style="rounded=0;whiteSpace=wrap;html=1;" vertex="1" parent="1">
          <mxGeometry x="910" y="410" width="120" height="60" as="geometry" />
        </mxCell>
        <mxCell id="qnB3MeHHuW4oLEE5ELyq-42" style="edgeStyle=orthogonalEdgeStyle;rounded=0;orthogonalLoop=1;jettySize=auto;html=1;entryX=0;entryY=0.5;entryDx=0;entryDy=0;" edge="1" parent="1" source="qnB3MeHHuW4oLEE5ELyq-43" target="qnB3MeHHuW4oLEE5ELyq-45">
          <mxGeometry relative="1" as="geometry" />
        </mxCell>
        <mxCell id="qnB3MeHHuW4oLEE5ELyq-43" value="抽帧" style="rounded=0;whiteSpace=wrap;html=1;" vertex="1" parent="1">
          <mxGeometry x="180" y="500" width="120" height="60" as="geometry" />
        </mxCell>
        <mxCell id="qnB3MeHHuW4oLEE5ELyq-44" style="edgeStyle=orthogonalEdgeStyle;rounded=0;orthogonalLoop=1;jettySize=auto;html=1;exitX=1;exitY=0.5;exitDx=0;exitDy=0;entryX=0;entryY=0.5;entryDx=0;entryDy=0;" edge="1" parent="1" source="qnB3MeHHuW4oLEE5ELyq-45" target="qnB3MeHHuW4oLEE5ELyq-47">
          <mxGeometry relative="1" as="geometry" />
        </mxCell>
        <mxCell id="qnB3MeHHuW4oLEE5ELyq-45" value="图像格式转化" style="rounded=0;whiteSpace=wrap;html=1;" vertex="1" parent="1">
          <mxGeometry x="320" y="500" width="120" height="60" as="geometry" />
        </mxCell>
        <mxCell id="qnB3MeHHuW4oLEE5ELyq-46" style="edgeStyle=orthogonalEdgeStyle;rounded=0;orthogonalLoop=1;jettySize=auto;html=1;exitX=1;exitY=0.5;exitDx=0;exitDy=0;entryX=0;entryY=0.5;entryDx=0;entryDy=0;" edge="1" parent="1" source="qnB3MeHHuW4oLEE5ELyq-47" target="qnB3MeHHuW4oLEE5ELyq-49">
          <mxGeometry relative="1" as="geometry" />
        </mxCell>
        <mxCell id="qnB3MeHHuW4oLEE5ELyq-47" value="图像预处理" style="rounded=0;whiteSpace=wrap;html=1;" vertex="1" parent="1">
          <mxGeometry x="470" y="500" width="120" height="60" as="geometry" />
        </mxCell>
        <mxCell id="qnB3MeHHuW4oLEE5ELyq-48" style="edgeStyle=orthogonalEdgeStyle;rounded=0;orthogonalLoop=1;jettySize=auto;html=1;exitX=1;exitY=0.5;exitDx=0;exitDy=0;entryX=0;entryY=0.5;entryDx=0;entryDy=0;" edge="1" parent="1" source="qnB3MeHHuW4oLEE5ELyq-49" target="qnB3MeHHuW4oLEE5ELyq-51">
          <mxGeometry relative="1" as="geometry" />
        </mxCell>
        <mxCell id="qnB3MeHHuW4oLEE5ELyq-49" value="算法推理" style="rounded=0;whiteSpace=wrap;html=1;" vertex="1" parent="1">
          <mxGeometry x="630" y="500" width="120" height="60" as="geometry" />
        </mxCell>
        <mxCell id="qnB3MeHHuW4oLEE5ELyq-50" style="edgeStyle=orthogonalEdgeStyle;rounded=0;orthogonalLoop=1;jettySize=auto;html=1;exitX=1;exitY=0.5;exitDx=0;exitDy=0;entryX=0;entryY=0.5;entryDx=0;entryDy=0;" edge="1" parent="1" source="qnB3MeHHuW4oLEE5ELyq-51" target="qnB3MeHHuW4oLEE5ELyq-52">
          <mxGeometry relative="1" as="geometry" />
        </mxCell>
        <mxCell id="qnB3MeHHuW4oLEE5ELyq-51" value="后处理" style="rounded=0;whiteSpace=wrap;html=1;" vertex="1" parent="1">
          <mxGeometry x="784" y="500" width="120" height="60" as="geometry" />
        </mxCell>
        <mxCell id="qnB3MeHHuW4oLEE5ELyq-52" value="时间戳命名存储" style="rounded=0;whiteSpace=wrap;html=1;" vertex="1" parent="1">
          <mxGeometry x="940" y="500" width="120" height="60" as="geometry" />
        </mxCell>
        <mxCell id="qnB3MeHHuW4oLEE5ELyq-54" style="edgeStyle=orthogonalEdgeStyle;rounded=0;orthogonalLoop=1;jettySize=auto;html=1;entryX=0;entryY=0.5;entryDx=0;entryDy=0;" edge="1" parent="1" source="qnB3MeHHuW4oLEE5ELyq-55" target="qnB3MeHHuW4oLEE5ELyq-57">
          <mxGeometry relative="1" as="geometry" />
        </mxCell>
        <mxCell id="qnB3MeHHuW4oLEE5ELyq-55" value="抽帧" style="rounded=0;whiteSpace=wrap;html=1;" vertex="1" parent="1">
          <mxGeometry x="220" y="585" width="120" height="60" as="geometry" />
        </mxCell>
        <mxCell id="qnB3MeHHuW4oLEE5ELyq-56" style="edgeStyle=orthogonalEdgeStyle;rounded=0;orthogonalLoop=1;jettySize=auto;html=1;exitX=1;exitY=0.5;exitDx=0;exitDy=0;entryX=0;entryY=0.5;entryDx=0;entryDy=0;" edge="1" parent="1" source="qnB3MeHHuW4oLEE5ELyq-57" target="qnB3MeHHuW4oLEE5ELyq-59">
          <mxGeometry relative="1" as="geometry" />
        </mxCell>
        <mxCell id="qnB3MeHHuW4oLEE5ELyq-57" value="图像格式转化" style="rounded=0;whiteSpace=wrap;html=1;" vertex="1" parent="1">
          <mxGeometry x="360" y="585" width="120" height="60" as="geometry" />
        </mxCell>
        <mxCell id="qnB3MeHHuW4oLEE5ELyq-58" style="edgeStyle=orthogonalEdgeStyle;rounded=0;orthogonalLoop=1;jettySize=auto;html=1;exitX=1;exitY=0.5;exitDx=0;exitDy=0;entryX=0;entryY=0.5;entryDx=0;entryDy=0;" edge="1" parent="1" source="qnB3MeHHuW4oLEE5ELyq-59" target="qnB3MeHHuW4oLEE5ELyq-61">
          <mxGeometry relative="1" as="geometry" />
        </mxCell>
        <mxCell id="qnB3MeHHuW4oLEE5ELyq-59" value="图像预处理" style="rounded=0;whiteSpace=wrap;html=1;" vertex="1" parent="1">
          <mxGeometry x="510" y="585" width="120" height="60" as="geometry" />
        </mxCell>
        <mxCell id="qnB3MeHHuW4oLEE5ELyq-60" style="edgeStyle=orthogonalEdgeStyle;rounded=0;orthogonalLoop=1;jettySize=auto;html=1;exitX=1;exitY=0.5;exitDx=0;exitDy=0;entryX=0;entryY=0.5;entryDx=0;entryDy=0;" edge="1" parent="1" source="qnB3MeHHuW4oLEE5ELyq-61" target="qnB3MeHHuW4oLEE5ELyq-63">
          <mxGeometry relative="1" as="geometry" />
        </mxCell>
        <mxCell id="qnB3MeHHuW4oLEE5ELyq-61" value="算法推理" style="rounded=0;whiteSpace=wrap;html=1;" vertex="1" parent="1">
          <mxGeometry x="670" y="585" width="120" height="60" as="geometry" />
        </mxCell>
        <mxCell id="qnB3MeHHuW4oLEE5ELyq-62" style="edgeStyle=orthogonalEdgeStyle;rounded=0;orthogonalLoop=1;jettySize=auto;html=1;exitX=1;exitY=0.5;exitDx=0;exitDy=0;entryX=0;entryY=0.5;entryDx=0;entryDy=0;" edge="1" parent="1" source="qnB3MeHHuW4oLEE5ELyq-63" target="qnB3MeHHuW4oLEE5ELyq-64">
          <mxGeometry relative="1" as="geometry" />
        </mxCell>
        <mxCell id="qnB3MeHHuW4oLEE5ELyq-63" value="后处理" style="rounded=0;whiteSpace=wrap;html=1;" vertex="1" parent="1">
          <mxGeometry x="810" y="585" width="120" height="60" as="geometry" />
        </mxCell>
        <mxCell id="qnB3MeHHuW4oLEE5ELyq-64" value="时间戳命名存储" style="rounded=0;whiteSpace=wrap;html=1;" vertex="1" parent="1">
          <mxGeometry x="980" y="585" width="120" height="60" as="geometry" />
        </mxCell>
      </root>
    </mxGraphModel>
  </diagram>
</mxfile>
